<svg width="78" height="80" viewBox="0 0 78 80" fill="none" xmlns="http://www.w3.org/2000/svg">
<g opacity="0.1">
<g opacity="0.1">
<path opacity="0.1" d="M0 41.43H38.6731V2.84705C17.3157 2.84705 0 20.1224 0 41.43Z" fill="#1E1E1E"/>
<path opacity="0.1" d="M77.3333 41.43C77.3333 20.1224 60.0175 2.84705 38.6601 2.84705V41.43H77.3333Z" fill="#1E1E1E"/>
<path opacity="0.1" d="M0 41.43C0 62.7247 17.3157 80 38.6731 80V41.43H0Z" fill="#1E1E1E"/>
<path opacity="0.1" d="M38.6731 80C60.0305 80 77.3462 62.7247 77.3462 41.4171H38.6731V80Z" fill="#1E1E1E"/>
</g>
</g>
<path d="M0 38.5829H38.6731V0C17.3157 0 0 17.2754 0 38.5829Z" fill="#F37920"/>
<path d="M77.3333 38.5829C77.3333 17.2754 60.0176 0 38.6731 0V38.5829H77.3333Z" fill="#3CBDB2"/>
<path d="M0 38.5829C0 59.8905 17.3157 77.1658 38.6731 77.1658V38.5829H0Z" fill="#FFC624"/>
<path d="M38.6731 77.153C60.0305 77.153 77.3462 59.8776 77.3462 38.5701H38.6731V77.153Z" fill="#9ECD43"/>
<path d="M39.8499 19.8252C39.5097 19.5166 39.1231 19.3469 38.6747 19.3469C38.1799 19.3469 37.7779 19.5012 37.4531 19.8252C37.1439 20.1337 36.9738 20.5502 36.9738 21.0439C36.9738 21.5375 37.1284 21.9386 37.4531 22.2626C37.7624 22.5711 38.1799 22.7408 38.6747 22.7408C39.1231 22.7408 39.5252 22.5866 39.8499 22.278C40.1901 21.9695 40.3602 21.553 40.3602 21.0593C40.3602 20.5502 40.1901 20.1337 39.8499 19.8252Z" fill="white"/>
<path d="M38.6747 57.8061C38.1799 57.8061 37.7779 57.6519 37.4531 57.3279C37.1439 57.0194 36.9738 56.6028 36.9738 56.1092C36.9738 55.6155 37.1284 55.2144 37.4531 54.8905C37.7624 54.5819 38.1799 54.4122 38.6747 54.4122C39.1231 54.4122 39.5252 54.5665 39.8499 54.8905C40.1901 55.2144 40.3602 55.6155 40.3602 56.1092C40.3602 56.6028 40.1901 57.0039 39.8499 57.3279C39.5097 57.6364 39.1231 57.8061 38.6747 57.8061ZM38.6747 54.8905C38.3036 54.8905 38.0253 54.9985 37.7933 55.2299C37.5614 55.4613 37.4531 55.7389 37.4531 56.1092C37.4531 56.4794 37.5614 56.7571 37.7933 56.9885C38.0253 57.2199 38.3036 57.3279 38.6747 57.3279C38.9994 57.3279 39.2778 57.2199 39.5406 56.9885C39.788 56.7571 39.8963 56.4794 39.8963 56.1092C39.8963 55.7544 39.7726 55.4613 39.5406 55.2299C39.2778 55.0139 38.9994 54.8905 38.6747 54.8905Z" fill="white"/>
<path d="M25.9331 31.7501C25.9331 30.9325 26.0877 30.1766 26.397 29.4515C26.7063 28.7419 27.1238 28.1094 27.6495 27.5849C28.1752 27.0603 28.7938 26.6438 29.5205 26.3353C30.2318 26.0267 31.005 25.8725 31.8245 25.8725C32.644 25.8725 33.4017 26.0267 34.1285 26.3353C34.8398 26.6438 35.4583 27.0603 35.9686 27.5694C36.2778 27.0758 36.6335 26.6284 37.0355 26.2273C37.0819 26.181 37.1437 26.1347 37.1901 26.0884C36.5252 25.4559 35.7521 24.9623 34.8707 24.5766C33.912 24.1755 32.8914 23.9595 31.809 23.9595C30.7266 23.9595 29.7061 24.1601 28.7474 24.5766C27.7887 24.9777 26.9691 25.5331 26.2733 26.2273C25.5775 26.9215 25.0208 27.7545 24.6188 28.6956C24.2167 29.6521 24.0002 30.6702 24.0002 31.7501V38.5842H25.9176V31.7501H25.9331Z" fill="white"/>
<path d="M37.7006 45.4183C37.7006 46.2359 37.5459 46.9919 37.2367 47.7169C37.2212 47.7478 37.2057 47.7632 37.1903 47.7941C36.881 48.4728 36.479 49.0745 35.9842 49.5682L35.9687 49.5836C35.443 50.0927 34.8399 50.5092 34.1286 50.8177C33.4019 51.1263 32.6442 51.2805 31.8246 51.2805C31.0051 51.2805 30.2474 51.1263 29.5207 50.8177C28.7939 50.5092 28.1754 50.0927 27.6496 49.5682C27.1239 49.0436 26.7064 48.4266 26.3971 47.7015C26.0879 46.9919 25.9333 46.2205 25.9333 45.4029V38.5688H24.0159V45.4029C24.0159 46.4828 24.2169 47.5009 24.6344 48.4574C25.0364 49.4139 25.5931 50.2315 26.2889 50.9257C26.9847 51.6199 27.8197 52.1753 28.763 52.5764C29.7217 52.9775 30.7268 53.1935 31.8246 53.1935C32.907 53.1935 33.9276 52.9929 34.8863 52.5764C35.7677 52.2061 36.5408 51.6971 37.2057 51.0646C37.2521 51.0183 37.314 50.972 37.3604 50.9257C37.7624 50.5246 38.118 50.0618 38.4273 49.5836C38.5201 49.4447 38.5819 49.275 38.6747 49.1208C38.7984 48.9048 38.9221 48.6888 39.0304 48.4574C39.4324 47.5009 39.6489 46.4982 39.6489 45.4029V38.5688H37.7315V45.4183H37.7006Z" fill="white"/>
<path d="M53.3179 31.7501C53.3179 30.6702 53.1168 29.6521 52.6993 28.6956C52.2973 27.7391 51.7406 26.9215 51.0448 26.2273C50.349 25.5331 49.514 24.9777 48.5707 24.5766C47.612 24.1755 46.5915 23.9595 45.5091 23.9595C44.4267 23.9595 43.4061 24.1601 42.4474 24.5766C41.566 24.9469 40.7929 25.4559 40.128 26.0884C40.0816 26.1347 40.0197 26.181 39.9733 26.2273C39.5713 26.6284 39.2157 27.0912 38.9064 27.5849C38.8136 27.7237 38.7518 27.8934 38.659 28.0477C38.5353 28.2636 38.4116 28.4796 38.3033 28.711C37.9013 29.6675 37.6848 30.6857 37.6848 31.7655V37.5815V38.5842H39.6022V37.5969V31.7501C39.6022 30.9325 39.7569 30.1766 40.0661 29.4515C40.0816 29.4206 40.097 29.4052 40.1125 29.3744C40.4218 28.6956 40.8238 28.0939 41.3186 27.5849L41.3341 27.5694C41.8598 27.0603 42.4629 26.6438 43.1742 26.3353C43.8855 26.0267 44.6586 25.8725 45.4781 25.8725C46.2977 25.8725 47.0554 26.0267 47.7821 26.3353C48.4934 26.6438 49.1274 27.0603 49.6531 27.5849C50.1789 28.1094 50.5964 28.7264 50.9056 29.4515C51.2149 30.1766 51.3695 30.9325 51.3695 31.7501V38.5842H53.2869V31.7501H53.3179Z" fill="white"/>
<path d="M51.4003 38.5842V45.4183C51.4003 46.236 51.2456 46.9919 50.9364 47.7169C50.6271 48.442 50.2096 49.0591 49.6839 49.5836C49.1581 50.1081 48.5396 50.5246 47.8129 50.8332C47.0861 51.1417 46.3284 51.296 45.5089 51.296C44.6894 51.296 43.9317 51.1417 43.2049 50.8332C42.4936 50.5246 41.8751 50.1081 41.3648 49.599C41.0556 50.0927 40.6999 50.5401 40.2979 50.9566C40.2515 51.0029 40.1896 51.0491 40.1432 51.0954C40.8082 51.7279 41.5813 52.237 42.4627 52.6072C43.4214 53.0083 44.4265 53.2243 45.5243 53.2243C46.6068 53.2243 47.6273 53.0238 48.586 52.6072C49.5447 52.2061 50.3642 51.6508 51.0601 50.9566C51.7559 50.2624 52.3126 49.4293 52.7146 48.4883C53.1166 47.5318 53.3331 46.5291 53.3331 45.4338V38.5997H51.4003V38.5842Z" fill="white"/>
</svg>
